<?xml version="1.0" ?>
<!-- Uploaded to: SVG Repo, www.svgrepo.com, Generator: SVG Repo Mixer Tools -->
<svg width="800px" height="800px" viewBox="0 0 24 24" version="1.1" xml:space="preserve" xmlns="http://www.w3.org/2000/svg" xmlns:xlink="http://www.w3.org/1999/xlink">
<style type="text/css">
	.st0{opacity:0.2;fill:none;stroke:#000000;stroke-width:5.000000e-02;stroke-miterlimit:10;}
	.st1{fill:none;stroke:#000000;stroke-width:2;stroke-linecap:round;stroke-linejoin:round;stroke-miterlimit:10;}
</style>
<g id="Layer_1"/>
<g id="Layer_2">
<g>
<path d="M12,21c-5,0-9-4-9-9s4-9,9-9c1.6,0,3.2,0.4,4.5,1.2c0.4,0.2,0.6,0.6,0.5,1.1S16.6,6,16.1,6.1C13.2,6.5,11,9,11,12    s2.2,5.5,5.1,5.9c0.4,0.1,0.8,0.4,0.8,0.8s-0.1,0.8-0.5,1.1C15.2,20.6,13.6,21,12,21z M12,5c-3.9,0-7,3.1-7,7s3.1,7,7,7    c0.3,0,0.7,0,1-0.1c-2.4-1.4-4-4-4-6.9s1.6-5.5,4-6.9C12.7,5,12.3,5,12,5z"/>
</g>
<g>
<path d="M17.5,14.4c-0.4,0-0.8-0.2-0.9-0.6l-0.4-0.9l-0.9-0.4c-0.4-0.2-0.6-0.5-0.6-0.9s0.2-0.8,0.6-0.9l0.9-0.4l0.4-0.9    c0.2-0.4,0.5-0.6,0.9-0.6s0.8,0.2,0.9,0.6l0.4,0.9l0.9,0.4c0.4,0.2,0.6,0.5,0.6,0.9s-0.2,0.8-0.6,0.9l-0.9,0.4l-0.4,0.9    C18.3,14.1,17.9,14.4,17.5,14.4z"/>
</g>
</g>
</svg>