<?xml version="1.0" ?>
<!-- Uploaded to: SVG Repo, www.svgrepo.com, Generator: SVG Repo Mixer Tools -->
<svg width="800px" height="800px" viewBox="0 0 24 24" version="1.1" xml:space="preserve" xmlns="http://www.w3.org/2000/svg" xmlns:xlink="http://www.w3.org/1999/xlink">
<style type="text/css">
	.st0{opacity:0.2;fill:none;stroke:#000000;stroke-width:5.000000e-02;stroke-miterlimit:10;}
	.st1{fill:none;stroke:#000000;stroke-width:2;stroke-linecap:round;stroke-linejoin:round;stroke-miterlimit:10;}
</style>
<g id="Layer_1"/>
<g id="Layer_2">
<g>
<circle cx="8" cy="17" r="1"/>
</g>
<g>
<circle cx="13" cy="17" r="1"/>
</g>
<g>
<circle cx="10" cy="20" r="1"/>
</g>
<g>
<circle cx="5" cy="20" r="1"/>
</g>
<path d="M20,8h-1c0,0-0.1,0-0.1,0c-0.1-0.6-0.4-1.2-0.7-1.8l0.5-0.5c0.4-0.4,0.4-1,0-1.4s-1-0.4-1.4,0l-0.5,0.5   c-0.5-0.4-1.1-0.6-1.8-0.7c0,0,0-0.1,0-0.1V3c0-0.6-0.4-1-1-1s-1,0.4-1,1v1c0,0,0,0.1,0,0.1c-0.7,0.1-1.4,0.5-2,0.9   c-0.2,0-0.3,0-0.5,0C8.4,5,6.7,6.5,6.3,8.6H5.4c-1.3,0-2.6,0.8-3.1,2.2C2.1,11.2,2,11.7,2,12.2v0.1c0,0.3,0,0.6,0.1,0.9   c0.3,1.3,1.3,2.4,2.6,2.7C4.9,16,5.2,16,5.4,16c0.6,0,1-0.4,1-1s-0.4-1-1-1c-0.1,0-0.2,0-0.3,0c-0.5-0.1-0.9-0.6-1.1-1.2   C4,12.6,4,12.5,4,12.3v-0.1c0-0.2,0-0.5,0.1-0.7c0.2-0.6,0.7-0.9,1.3-0.9h1.8c0.6,0,1-0.4,1-1c0-1.4,1-2.6,2.3-2.6   c0.2,0,0.4,0,0.5,0.1c0.1,0,0.2,0.1,0.4,0.1c0,0,0.1,0,0.1,0c0.1,0,0.1,0.1,0.2,0.1c0.7,0.5,1.2,1.3,1.2,2.3c0,0.6,0.4,1,1,1h1.8   c0.4,0,0.8,0.2,1.1,0.6c0,0,0,0.1,0.1,0.1c0.2,0.3,0.3,0.6,0.3,0.9v0.1c0,0.2,0,0.3-0.1,0.5c-0.1,0.5-0.5,0.9-0.9,1.1   C15.9,14,15.7,14,15.6,14c-0.6,0-1,0.4-1,1s0.4,1,1,1c0.4,0,0.8-0.1,1.1-0.2c1-0.4,1.8-1.3,2.1-2.5c0.1-0.3,0.1-0.7,0.1-1v-0.1   c0-0.5-0.1-1-0.3-1.5c0.1-0.2,0.2-0.5,0.2-0.7c0,0,0.1,0,0.1,0h1c0.6,0,1-0.4,1-1S20.6,8,20,8z M14.7,8.6c-0.1-0.3-0.1-0.5-0.3-0.8   c0-0.1-0.1-0.2-0.1-0.2c-0.1-0.2-0.2-0.3-0.3-0.5C14,7,14,6.9,13.9,6.8c-0.1-0.2-0.2-0.3-0.4-0.4c-0.1-0.1-0.1-0.1-0.2-0.2   c0,0-0.1-0.1-0.1-0.1C13.5,6,13.8,6,14,6c1.6,0,3,1.3,3,2.9c-0.1-0.1-0.3-0.1-0.4-0.1c-0.1,0-0.2-0.1-0.2-0.1   c-0.2-0.1-0.5-0.1-0.7-0.1H14.7z"/>
</g>
</svg>