<?xml version="1.0" ?>
<!-- Uploaded to: SVG Repo, www.svgrepo.com, Generator: SVG Repo Mixer Tools -->
<svg width="800px" height="800px" viewBox="0 0 24 24" version="1.1" xml:space="preserve" xmlns="http://www.w3.org/2000/svg" xmlns:xlink="http://www.w3.org/1999/xlink">
<style type="text/css">
	.st0{opacity:0.2;fill:none;stroke:#000000;stroke-width:5.000000e-02;stroke-miterlimit:10;}
	.st1{fill:none;stroke:#000000;stroke-width:2;stroke-linecap:round;stroke-linejoin:round;stroke-miterlimit:10;}
</style>
<g id="Layer_1"/>
<g id="Layer_2">
<path d="M21.4,7C21,6.9,20.6,7,20.3,7.2C19.8,7.7,19.2,8,18.5,8C17.1,8,16,6.9,16,5.5c0-0.7,0.3-1.3,0.8-1.8C17,3.4,17.1,3,17,2.6   C16.8,2.2,16.4,2,16,2c-2.6,0-4.8,1.6-5.6,4c-2,0.1-3.7,1.6-4.1,3.6H5.4c-1.3,0-2.6,0.8-3.1,2.2C2.1,12.2,2,12.7,2,13.2v0.1   c0,0.3,0,0.6,0.1,0.9c0.3,1.4,1.3,2.4,2.6,2.7C4.9,17,5.1,17,5.4,17c0.6,0,1-0.4,1-1s-0.4-1-1-1c-0.1,0-0.2,0-0.3,0   c-0.5-0.1-0.9-0.6-1.1-1.2C4,13.6,4,13.5,4,13.3v-0.1c0-0.2,0-0.5,0.1-0.7c0.2-0.6,0.7-0.9,1.3-0.9h1.8c0.6,0,1-0.4,1-1   c0-1.4,1-2.6,2.3-2.6c0.1,0,0.3,0,0.4,0c0,0,0.1,0,0.1,0c0,0,0,0,0,0c0.1,0,0.2,0.1,0.4,0.1c0,0,0.1,0,0.1,0c0.1,0,0.1,0.1,0.2,0.1   c0.7,0.5,1.2,1.3,1.2,2.3c0,0.6,0.4,1,1,1h1.8c0.4,0,0.8,0.2,1.1,0.6c0,0,0,0.1,0.1,0.1c0.1,0.1,0.2,0.3,0.2,0.5c0,0,0,0.1,0,0.1   c0,0.1,0,0.2,0,0.3v0.1c0,0.2,0,0.3-0.1,0.5c-0.1,0.5-0.5,0.9-0.9,1.1C15.9,15,15.7,15,15.6,15c-0.6,0-1,0.4-1,1s0.4,1,1,1   c0.4,0,0.8-0.1,1.1-0.2c1-0.4,1.8-1.3,2.1-2.5c0.1-0.3,0.1-0.7,0.1-1v-0.1c1.8-1.1,3-3,3-5.2V7.9C22,7.5,21.8,7.2,21.4,7z    M18.4,11.2C18.4,11.2,18.4,11.1,18.4,11.2c-0.1-0.1-0.1-0.1-0.1-0.1c0,0-0.1-0.1-0.1-0.1c-0.7-0.9-1.6-1.4-2.7-1.4h-0.9   c-0.3-1.2-1-2.3-2-2.9c-0.1-0.1-0.3-0.2-0.4-0.2c0.4-0.8,1-1.5,1.8-2C14,4.8,14,5.2,14,5.5C14,8,16,10,18.5,10c0.4,0,0.7,0,1-0.1   C19.3,10.4,18.9,10.8,18.4,11.2z"/>
<g>
<path d="M8,19c-0.6,0-1-0.4-1-1v-1c0-0.6,0.4-1,1-1s1,0.4,1,1v1C9,18.6,8.6,19,8,19z"/>
</g>
<g>
<path d="M13,19c-0.6,0-1-0.4-1-1v-1c0-0.6,0.4-1,1-1s1,0.4,1,1v1C14,18.6,13.6,19,13,19z"/>
</g>
<g>
<path d="M11,23c-0.6,0-1-0.4-1-1v-1c0-0.6,0.4-1,1-1s1,0.4,1,1v1C12,22.6,11.6,23,11,23z"/>
</g>
<g>
<path d="M16,23c-0.6,0-1-0.4-1-1v-1c0-0.6,0.4-1,1-1s1,0.4,1,1v1C17,22.6,16.6,23,16,23z"/>
</g>
<g>
<path d="M6,23c-0.6,0-1-0.4-1-1v-1c0-0.6,0.4-1,1-1s1,0.4,1,1v1C7,22.6,6.6,23,6,23z"/>
</g>
</g>
</svg>